<svg width="141" height="97" viewBox="0 0 141 97" fill="none" xmlns="http://www.w3.org/2000/svg">
<path opacity="0.6" d="M0 33C0 28.5817 3.58172 25 8 25H133C137.418 25 141 28.5817 141 33V89C141 93.4183 137.418 97 133 97H8C3.58172 97 0 93.4183 0 89V33Z" fill="#ECF1F9"/>
<g clip-path="url(#clip0_6919_2309)">
<g opacity="0.5">
<path d="M102.385 24.2014L38.6972 11.1835C36.8023 10.7962 34.9495 12.0261 34.559 13.9306L24.3453 63.7422C23.9548 65.6467 25.1744 67.5046 27.0693 67.8919L90.7575 80.9099C92.6525 81.2972 94.5052 80.0673 94.8957 78.1628L105.109 28.3511C105.5 26.4467 104.28 24.5888 102.385 24.2014Z" fill="#6A70F9"/>
<path opacity="0.5" d="M38.6683 11.3624L102.361 24.3812C104.143 24.7455 105.294 26.4987 104.927 28.2902L102.384 40.6922L32.2231 26.3512L34.7661 13.9493C35.1334 12.1578 36.8817 10.9972 38.6643 11.3616L38.6683 11.3624Z" fill="#CEE0EF"/>
</g>
<path d="M100.416 23.7128L39.7731 7.46351C37.9314 6.97004 36.0364 8.07073 35.5403 9.92196L22.2901 59.3723C21.7941 61.2235 22.8849 63.1243 24.7266 63.6177L85.3698 79.8671C87.2115 80.3605 89.1065 79.2598 89.6026 77.4086L102.853 27.9583C103.349 26.107 102.258 24.2063 100.416 23.7128Z" fill="#6A70F9"/>
<path opacity="0.5" d="M39.4576 7.56955L100.653 23.9669C102.239 24.3916 103.177 26.0276 102.75 27.6211L100.058 37.6689L33.122 19.7335L35.8143 9.68565C36.2413 8.09216 37.8724 7.14479 39.4576 7.56955Z" fill="#CEE0EF"/>
<path d="M58.0409 5.80095L58.0369 5.79988C56.9271 5.50249 55.785 6.16581 55.4861 7.28144L54.0467 12.6534C53.7477 13.769 54.4051 14.9145 55.515 15.2119L55.519 15.213C56.6288 15.5104 57.7709 14.847 58.0698 13.7314L59.5092 8.35943C59.8081 7.2438 59.1508 6.09833 58.0409 5.80095Z" fill="#6A70F9"/>
<path d="M85.4342 13.141L85.4302 13.1399C84.3204 12.8425 83.1783 13.5058 82.8794 14.6215L81.44 19.9934C81.141 21.1091 81.7984 22.2545 82.9083 22.5519L82.9123 22.553C84.0221 22.8504 85.1642 22.1871 85.4631 21.0714L86.9025 15.6995C87.2015 14.5838 86.5441 13.4384 85.4342 13.141Z" fill="#6A70F9"/>
<g opacity="0.5">
<path opacity="0.5" d="M47.0973 30.7585L42.4336 29.5088C41.976 29.3862 41.5051 29.6597 41.3818 30.1198L40.1774 34.6145C40.0542 35.0745 40.3252 35.5469 40.7829 35.6695L45.4465 36.9191C45.9042 37.0418 46.3751 36.7682 46.4983 36.3082L47.7027 31.8134C47.826 31.3534 47.5549 30.8811 47.0973 30.7585Z" fill="#CEE0EF"/>
<path opacity="0.5" d="M61.1563 34.5241L56.4927 33.2745C56.0351 33.1518 55.5641 33.4254 55.4409 33.8854L54.2365 38.3801C54.1132 38.8402 54.3843 39.3125 54.842 39.4351L59.5056 40.6848C59.9632 40.8074 60.4342 40.5339 60.5574 40.0738L61.7618 35.5791C61.8851 35.119 61.614 34.6467 61.1563 34.5241Z" fill="#CEE0EF"/>
<path opacity="0.5" d="M75.2193 38.2936L70.5557 37.044C70.098 36.9214 69.6271 37.1949 69.5039 37.6549L68.2995 42.1497C68.1762 42.6097 68.4473 43.082 68.9049 43.2047L73.5686 44.4543C74.0262 44.5769 74.4972 44.3034 74.6204 43.8434L75.8248 39.3486C75.948 38.8886 75.677 38.4162 75.2193 38.2936Z" fill="#CEE0EF"/>
<path opacity="0.5" d="M44.4332 40.6999L39.7696 39.4502C39.3119 39.3276 38.841 39.6011 38.7177 40.0612L37.5134 44.5559C37.3901 45.016 37.6612 45.4883 38.1188 45.6109L42.7824 46.8605C43.2401 46.9832 43.711 46.7096 43.8343 46.2496L45.0387 41.7549C45.1619 41.2948 44.8908 40.8225 44.4332 40.6999Z" fill="#CEE0EF"/>
<path opacity="0.5" d="M58.4918 44.4694L53.8282 43.2198C53.3705 43.0972 52.8996 43.3707 52.7763 43.8307L51.572 48.3255C51.4487 48.7855 51.7198 49.2578 52.1774 49.3804L56.841 50.6301C57.2987 50.7527 57.7696 50.4792 57.8929 50.0191L59.0972 45.5244C59.2205 45.0644 58.9494 44.592 58.4918 44.4694Z" fill="#CEE0EF"/>
<path opacity="0.5" d="M72.5548 48.235L67.8911 46.9854C67.4335 46.8628 66.9626 47.1363 66.8393 47.5963L65.6349 52.0911C65.5117 52.5511 65.7828 53.0234 66.2404 53.1461L70.904 54.3957C71.3617 54.5183 71.8326 54.2448 71.9559 53.7848L73.1602 49.29C73.2835 48.83 73.0124 48.3576 72.5548 48.235Z" fill="#CEE0EF"/>
<path opacity="0.5" d="M89.2823 42.0651L84.6187 40.8155C84.161 40.6929 83.6901 40.9664 83.5668 41.4264L82.3625 45.9212C82.2392 46.3812 82.5103 46.8535 82.9679 46.9762L87.6316 48.2258C88.0892 48.3484 88.5601 48.0749 88.6834 47.6148L89.8878 43.1201C90.011 42.6601 89.74 42.1877 89.2823 42.0651Z" fill="#CEE0EF"/>
<path opacity="0.5" d="M86.6178 52.0065L81.9541 50.7569C81.4965 50.6343 81.0256 50.9078 80.9023 51.3678L79.6979 55.8626C79.5747 56.3226 79.8457 56.7949 80.3034 56.9176L84.967 58.1672C85.4247 58.2898 85.8956 58.0163 86.0189 57.5563L87.2232 53.0615C87.3465 52.6015 87.0754 52.1291 86.6178 52.0065Z" fill="#CEE0EF"/>
<path opacity="0.5" d="M41.6739 51.0026L37.0103 49.753C36.5526 49.6304 36.0817 49.9039 35.9585 50.3639L34.7541 54.8587C34.6308 55.3187 34.9019 55.791 35.3595 55.9136L40.0232 57.1633C40.4808 57.2859 40.9517 57.0124 41.075 56.5523L42.2794 52.0576C42.4026 51.5976 42.1316 51.1252 41.6739 51.0026Z" fill="#CEE0EF"/>
<path opacity="0.5" d="M55.733 54.7682L51.0694 53.5186C50.6117 53.396 50.1408 53.6695 50.0175 54.1295L48.8132 58.6243C48.6899 59.0843 48.961 59.5566 49.4186 59.6793L54.0823 60.9289C54.5399 61.0515 55.0108 60.778 55.1341 60.318L56.3385 55.8232C56.4617 55.3632 56.1907 54.8908 55.733 54.7682Z" fill="#CEE0EF"/>
<path opacity="0.5" d="M69.796 58.5378L65.1324 57.2881C64.6747 57.1655 64.2038 57.439 64.0805 57.8991L62.8762 62.3938C62.7529 62.8538 63.024 63.3262 63.4816 63.4488L68.1452 64.6984C68.6029 64.821 69.0738 64.5475 69.1971 64.0875L70.4014 59.5927C70.5247 59.1327 70.2536 58.6604 69.796 58.5378Z" fill="#CEE0EF"/>
<path opacity="0.5" d="M83.8585 62.3034L79.1949 61.0538C78.7372 60.9311 78.2663 61.2047 78.143 61.6647L76.9387 66.1594C76.8154 66.6195 77.0865 67.0918 77.5441 67.2144L82.2077 68.464C82.6654 68.5867 83.1363 68.3132 83.2596 67.8531L84.4639 63.3584C84.5872 62.8983 84.3161 62.426 83.8585 62.3034Z" fill="#CEE0EF"/>
</g>
<path d="M57.099 38.3L56.1718 36.6844L56.7511 36.3479L57.3449 37.3825L59.9465 35.8715L60.28 36.4525L57.099 38.3Z" fill="#DDE5F1"/>
<path d="M54.4389 48.2258L53.5117 46.6102L54.091 46.2737L54.6847 47.3083L57.2864 45.7972L57.6198 46.3782L54.4389 48.2258Z" fill="#DDE5F1"/>
<path d="M82.4247 55.968L81.4964 54.3564L82.0757 54.0199L82.6695 55.0545L85.2722 53.5394L85.6056 54.1204L82.4247 55.968Z" fill="#DDE5F1"/>
<path d="M79.7646 65.8937L78.8363 64.2821L79.4156 63.9457L80.0104 64.9763L82.612 63.4652L82.9455 64.0462L79.7646 65.8937Z" fill="#DDE5F1"/>
</g>
<defs>
<clipPath id="clip0_6919_2309">
<rect width="75" height="68" fill="white" transform="translate(38.0776 0.45282) rotate(15)"/>
</clipPath>
</defs>
</svg>
