<svg width="23" height="23" viewBox="0 0 23 23" fill="none" xmlns="http://www.w3.org/2000/svg">
<path d="M19.1666 9.58333C19.1666 9.32917 19.0656 9.08541 18.8859 8.90569C18.7062 8.72597 18.4624 8.625 18.2082 8.625C17.9541 8.625 17.7103 8.72597 17.5306 8.90569C17.3509 9.08541 17.2499 9.32917 17.2499 9.58333H19.1666ZM5.74989 9.58333C5.74989 9.32917 5.64893 9.08541 5.4692 8.90569C5.28948 8.72597 5.04573 8.625 4.79156 8.625C4.5374 8.625 4.29364 8.72597 4.11392 8.90569C3.9342 9.08541 3.83323 9.32917 3.83323 9.58333H5.74989ZM19.4474 12.1775C19.6281 12.3521 19.8702 12.4487 20.1214 12.4465C20.3727 12.4443 20.6131 12.3435 20.7908 12.1659C20.9684 11.9882 21.0692 11.7478 21.0714 11.4965C21.0736 11.2453 20.977 11.0032 20.8024 10.8225L19.4474 12.1775ZM11.4999 2.875L12.1774 2.19746C11.9977 2.0178 11.754 1.91687 11.4999 1.91687C11.2458 1.91687 11.0021 2.0178 10.8224 2.19746L11.4999 2.875ZM2.19735 10.8225C2.10582 10.9109 2.03281 11.0166 1.98259 11.1335C1.93236 11.2504 1.90593 11.3762 1.90482 11.5034C1.90372 11.6307 1.92796 11.7569 1.97615 11.8747C2.02433 11.9924 2.09549 12.0994 2.18547 12.1894C2.27546 12.2794 2.38245 12.3506 2.50023 12.3987C2.61801 12.4469 2.7442 12.4712 2.87145 12.4701C2.99869 12.469 3.12445 12.4425 3.24137 12.3923C3.35829 12.3421 3.46403 12.2691 3.55244 12.1775L2.19735 10.8225ZM6.70823 21.0833H16.2916V19.1667H6.70823V21.0833ZM19.1666 18.2083V9.58333H17.2499V18.2083H19.1666ZM5.74989 18.2083V9.58333H3.83323V18.2083H5.74989ZM20.8024 10.8225L12.1774 2.19746L10.8224 3.55254L19.4474 12.1775L20.8024 10.8225ZM10.8224 2.19746L2.19735 10.8225L3.55244 12.1775L12.1774 3.55254L10.8224 2.19746ZM16.2916 21.0833C17.0541 21.0833 17.7853 20.7804 18.3245 20.2413C18.8637 19.7021 19.1666 18.9708 19.1666 18.2083H17.2499C17.2499 18.4625 17.1489 18.7063 16.9692 18.886C16.7895 19.0657 16.5457 19.1667 16.2916 19.1667V21.0833ZM6.70823 19.1667C6.45406 19.1667 6.21031 19.0657 6.03058 18.886C5.85086 18.7063 5.74989 18.4625 5.74989 18.2083H3.83323C3.83323 18.9708 4.13613 19.7021 4.6753 20.2413C5.21446 20.7804 5.94573 21.0833 6.70823 21.0833V19.1667Z" fill="#0B63B6"/>
</svg>
