<svg width="25" height="23" viewBox="0 0 25 23" fill="none" xmlns="http://www.w3.org/2000/svg">
<path d="M20.254 9.58333C20.254 9.32917 20.149 9.08541 19.9621 8.90569C19.7752 8.72597 19.5217 8.625 19.2573 8.625C18.993 8.625 18.7395 8.72597 18.5526 8.90569C18.3657 9.08541 18.2607 9.32917 18.2607 9.58333H20.254ZM6.30067 9.58333C6.30067 9.32917 6.19567 9.08541 6.00875 8.90569C5.82184 8.72597 5.56834 8.625 5.304 8.625C5.03967 8.625 4.78617 8.72597 4.59926 8.90569C4.41234 9.08541 4.30734 9.32917 4.30734 9.58333H6.30067ZM20.546 12.1775C20.734 12.3521 20.9858 12.4487 21.2471 12.4465C21.5084 12.4443 21.7584 12.3435 21.9432 12.1659C22.128 11.9882 22.2328 11.7478 22.2351 11.4965C22.2373 11.2453 22.1369 11.0032 21.9553 10.8225L20.546 12.1775ZM12.2807 2.875L12.9853 2.19746C12.7984 2.0178 12.545 1.91687 12.2807 1.91687C12.0164 1.91687 11.7629 2.0178 11.576 2.19746L12.2807 2.875ZM2.60603 10.8225C2.51084 10.9109 2.43491 11.0166 2.38267 11.1335C2.33044 11.2504 2.30295 11.3762 2.3018 11.5034C2.30065 11.6307 2.32586 11.7569 2.37598 11.8747C2.42609 11.9924 2.5001 12.0994 2.59367 12.1894C2.68725 12.2794 2.79853 12.3506 2.92102 12.3987C3.04351 12.4469 3.17475 12.4712 3.30709 12.4701C3.43942 12.469 3.5702 12.4425 3.6918 12.3923C3.8134 12.3421 3.92338 12.2691 4.01531 12.1775L2.60603 10.8225ZM7.29734 21.0833H17.264V19.1667H7.29734V21.0833ZM20.254 18.2083V9.58333H18.2607V18.2083H20.254ZM6.30067 18.2083V9.58333H4.30734V18.2083H6.30067ZM21.9553 10.8225L12.9853 2.19746L11.576 3.55254L20.546 12.1775L21.9553 10.8225ZM11.576 2.19746L2.60603 10.8225L4.01531 12.1775L12.9853 3.55254L11.576 2.19746ZM17.264 21.0833C18.057 21.0833 18.8175 20.7804 19.3783 20.2413C19.939 19.7021 20.254 18.9708 20.254 18.2083H18.2607C18.2607 18.4625 18.1557 18.7063 17.9688 18.886C17.7818 19.0657 17.5283 19.1667 17.264 19.1667V21.0833ZM7.29734 19.1667C7.03301 19.1667 6.7795 19.0657 6.59259 18.886C6.40568 18.7063 6.30067 18.4625 6.30067 18.2083H4.30734C4.30734 18.9708 4.62236 19.7021 5.18309 20.2413C5.74382 20.7804 6.50434 21.0833 7.29734 21.0833V19.1667Z" fill="#B2B2B2"/>
</svg>
