<svg width="23" height="23" viewBox="0 0 23 23" fill="none" xmlns="http://www.w3.org/2000/svg">
<g opacity="0.3">
<path d="M22.125 16.0625C22.1238 14.1419 21.5672 12.2626 20.5222 10.6511L19.4843 11.6897C20.2718 13.0123 20.6875 14.5232 20.6875 16.0625H22.125ZM20.6875 8.45384L19.6712 7.43753L13.5137 13.5951C13.0755 13.331 12.5741 13.1902 12.0625 13.1875C11.4939 13.1875 10.938 13.3561 10.4653 13.6721C9.99246 13.988 9.62396 14.437 9.40636 14.9623C9.18876 15.4877 9.13182 16.0657 9.24276 16.6234C9.35369 17.1811 9.62751 17.6934 10.0296 18.0955C10.4317 18.4975 10.9439 18.7714 11.5016 18.8823C12.0593 18.9932 12.6374 18.9363 13.1627 18.7187C13.6881 18.5011 14.1371 18.1326 14.453 17.6598C14.7689 17.187 14.9375 16.6312 14.9375 16.0625C14.9349 15.5507 14.7941 15.0491 14.53 14.6107L20.6875 8.45384ZM12.0625 17.5C11.7782 17.5 11.5003 17.4157 11.2639 17.2578C11.0275 17.0998 10.8432 16.8753 10.7344 16.6126C10.6256 16.35 10.5972 16.0609 10.6526 15.7821C10.7081 15.5032 10.845 15.2471 11.046 15.0461C11.2471 14.845 11.5032 14.7081 11.7821 14.6526C12.0609 14.5972 12.35 14.6257 12.6126 14.7345C12.8753 14.8433 13.0998 15.0275 13.2578 15.2639C13.4157 15.5003 13.5 15.7782 13.5 16.0625C13.4996 16.4437 13.3481 16.8091 13.0786 17.0786C12.8091 17.3481 12.4436 17.4996 12.0625 17.5ZM12.0625 7.43753C13.6016 7.43823 15.112 7.85388 16.4347 8.64072L17.4797 7.59637C15.961 6.61971 14.2071 6.07044 12.4026 6.00633C10.5981 5.94223 8.80968 6.36566 7.22549 7.23209C5.64129 8.09852 4.3199 9.3759 3.40034 10.9299C2.48078 12.4838 1.99704 14.2569 2.00001 16.0625H3.43751C3.44018 13.7759 4.34973 11.5836 5.96666 9.96667C7.58358 8.34975 9.77584 7.44019 12.0625 7.43753Z" fill="black"/>
</g>
</svg>
