<svg width="25" height="23" viewBox="0 0 25 23" fill="none" xmlns="http://www.w3.org/2000/svg">
<path d="M23.1302 16.0625C23.129 14.1419 22.5501 12.2626 21.4633 10.6511L20.3839 11.6897C21.2029 13.0123 21.6352 14.5232 21.6352 16.0625H23.1302ZM21.6352 8.45384L20.5782 7.43753L14.1744 13.5951C13.7187 13.331 13.1973 13.1902 12.6652 13.1875C12.0738 13.1875 11.4958 13.3561 11.0041 13.6721C10.5124 13.988 10.1291 14.437 9.90281 14.9623C9.6765 15.4877 9.61729 16.0657 9.73266 16.6234C9.84803 17.1811 10.1328 17.6934 10.551 18.0955C10.9691 18.4975 11.5019 18.7714 12.0819 18.8823C12.6619 18.9932 13.2631 18.9363 13.8094 18.7187C14.3558 18.5011 14.8228 18.1326 15.1513 17.6598C15.4798 17.187 15.6552 16.6312 15.6552 16.0625C15.6525 15.5507 15.5061 15.0491 15.2314 14.6107L21.6352 8.45384ZM12.6652 17.5C12.3695 17.5 12.0805 17.4157 11.8346 17.2578C11.5888 17.0998 11.3972 16.8753 11.284 16.6126C11.1709 16.35 11.1413 16.0609 11.1989 15.7821C11.2566 15.5032 11.399 15.2471 11.6081 15.0461C11.8172 14.845 12.0835 14.7081 12.3735 14.6526C12.6636 14.5972 12.9641 14.6257 13.2373 14.7345C13.5105 14.8433 13.744 15.0275 13.9083 15.2639C14.0725 15.5003 14.1602 15.7782 14.1602 16.0625C14.1598 16.4437 14.0022 16.8091 13.7219 17.0786C13.4416 17.3481 13.0616 17.4996 12.6652 17.5ZM12.6652 7.43753C14.2658 7.43823 15.8366 7.85388 17.2123 8.64072L18.2991 7.59637C16.7196 6.61971 14.8956 6.07044 13.0189 6.00633C11.1422 5.94223 9.28227 6.36566 7.6347 7.23209C5.98714 8.09852 4.6129 9.3759 3.65655 10.9299C2.7002 12.4838 2.19711 14.2569 2.20021 16.0625H3.69521C3.69798 13.7759 4.64392 11.5836 6.32552 9.96667C8.00712 8.34975 10.2871 7.44019 12.6652 7.43753Z" fill="#134885"/>
</svg>
